<?xml version="1.0" encoding="utf-8"?>
<!-- Generator: Adobe Illustrator 25.0.0, SVG Export Plug-In . SVG Version: 6.00 Build 0)  -->
<svg version="1.1" xmlns="http://www.w3.org/2000/svg" xmlns:xlink="http://www.w3.org/1999/xlink" x="0px" y="0px"
	 viewBox="0 0 595.28 841.89" style="enable-background:new 0 0 595.28 841.89;" xml:space="preserve">
<style type="text/css">
	.st0{fill:#B59830;}
	.st1{fill:#FFD93A;}
	.st2{fill:#FFEEA3;}
	.st3{display:none;fill:#82702C;stroke:#000000;stroke-miterlimit:10;}
	.st4{display:none;fill:#FFFFFF;stroke:#000000;stroke-miterlimit:10;}
	.st5{fill:#FFFFFF;}
	.st6{fill:none;stroke:#000000;stroke-miterlimit:10;}
</style>
<g id="Pause">
	<g id="Base_1_">
		<g>
			<path class="st0" d="M80.21,124.31c-16.77,0-33.24-1.95-48.54-4.07l-4.67-0.65l-0.21-4.71c-0.48-10.43-0.64-21.02-0.49-31.46
				c0.13-9.19,0.5-18.5,1.11-27.67c0.3-4.58,0.67-9.22,1.1-13.8c0.1-1.13,0.16-2.41,0.21-3.77c0.15-3.54,0.31-7.56,1.5-11.12
				c1.26-3.79,3.49-5.72,6.62-5.72c1.5,0,2.68,0.51,3.63,0.92c0.25,0.11,0.54,0.24,0.89,0.37c1.63,0.65,3.17,1.17,4.7,1.61
				c3.4,0.97,7.16,1.65,11.18,2c2.26,0.2,4.65,0.3,7.09,0.3c4.76,0,10.01-0.38,16.04-1.15c4.05-0.52,8.2-1.17,12.22-1.79
				c9.79-1.53,19.91-3.11,30.14-3.11c1.63,0,3.25,0.04,4.81,0.12c1.71,0.09,6.26,0.32,9.05,4.01c1.43,1.9,1.8,3.97,2.01,5.21
				c4.77,27.23,8.02,56.09-0.46,82.68c-0.52,1.63-1.49,4.67-4.02,6.91c-3.05,2.69-6.79,3.01-9.34,3.01c-0.78,0-1.55-0.03-2.31-0.06
				c-1.26-0.05-2.55-0.08-3.86-0.08c-5.62,0-11.18,0.47-17.08,0.96c-3.44,0.29-7,0.58-10.54,0.78
				C87.49,124.21,83.87,124.31,80.21,124.31z"/>
			<path d="M80.21,126.28c-4.5-0.03-8.99-0.17-13.46-0.46c-4.47-0.33-8.94-0.71-13.38-1.28c-4.44-0.53-8.87-1.2-13.28-1.93
				c-4.4-0.76-8.79-1.57-13.16-2.51l0,0l-0.4-0.08l-0.03-0.39c-0.57-7.4-0.98-14.83-1.2-22.26c-0.22-7.43-0.33-14.87-0.16-22.31
				c0.15-7.44,0.4-14.87,0.91-22.3l0.76-11.13c0.21-3.56,0.15-7.34,0.76-11.23c0.33-1.94,0.77-3.88,1.7-5.84
				c0.48-0.97,1.08-1.93,1.92-2.77c0.83-0.83,1.9-1.54,3.07-1.91c1.18-0.38,2.34-0.48,3.53-0.36c1.18,0.12,2.3,0.52,3.2,0.91
				c0.45,0.18,0.8,0.35,1.23,0.5l1.27,0.43l2.54,0.86c3.4,1.07,6.96,1.66,10.55,2.03c1.8,0.16,3.62,0.17,5.42,0.26
				c0.91,0.03,1.81,0.09,2.71,0.09c0.91,0,1.82-0.02,2.73-0.06c3.64-0.12,7.28-0.45,10.92-0.88c3.64-0.43,7.31-1.02,10.96-1.52
				c7.3-1.07,14.7-2.2,22.18-2.79c3.74-0.27,7.5-0.41,11.27-0.34c1.89,0.1,3.74,0.14,5.67,0.28c1.97,0.18,4.01,0.67,5.83,1.71
				c1.83,1.03,3.34,2.65,4.24,4.53c0.45,0.94,0.75,1.93,0.95,2.9c0.2,0.99,0.31,1.88,0.45,2.8c0.56,3.67,1.1,7.35,1.56,11.04
				c1.82,14.75,3.04,29.66,1.89,44.51l-0.51,5.56c-0.26,1.84-0.48,3.69-0.77,5.53c-0.36,1.83-0.6,3.68-1,5.5l-0.6,2.73
				c-0.19,0.91-0.4,1.82-0.66,2.72c-0.53,1.8-0.9,3.6-1.52,5.42c-0.62,1.81-1.52,3.6-2.87,5.09c-1.34,1.49-3.08,2.63-4.97,3.3
				c-1.89,0.68-3.89,0.92-5.81,0.95l-5.57,0.02c-1.83,0.02-3.66,0.13-5.49,0.25c-3.67,0.25-7.33,0.67-11.02,1.04l-11.14,1
				L80.21,126.28z M80.21,122.34l11.02-0.24l11.06-0.66c3.7-0.24,7.44-0.42,11.18-0.49c1.87-0.03,3.75-0.03,5.63,0.04l5.56,0.28
				c1.78,0.06,3.53-0.06,5.17-0.56c1.64-0.48,3.14-1.36,4.35-2.57c1.21-1.21,2.11-2.75,2.78-4.41c0.66-1.67,1.17-3.48,1.72-5.23
				c2.1-7.07,3.35-14.4,3.92-21.78c1.05-14.78-0.33-29.63-2.81-44.21c-0.6-3.65-1.27-7.29-1.97-10.93c-0.35-1.86-0.62-3.59-1.4-5.02
				c-0.76-1.44-1.94-2.61-3.38-3.35c-1.44-0.75-3.1-1.1-4.82-1.19c-1.78-0.06-3.64-0.03-5.46-0.06c-3.65,0.07-7.31,0.34-10.96,0.75
				c-3.65,0.39-7.29,0.89-10.94,1.47c-3.65,0.57-7.29,1.21-10.98,1.74c-3.69,0.54-7.35,1.16-11.07,1.63
				c-3.73,0.44-7.48,0.75-11.26,0.88c-0.94,0.03-1.89,0.05-2.84,0.05c-0.95,0-1.9-0.07-2.85-0.1c-1.9-0.1-3.79-0.12-5.69-0.3
				c-3.79-0.4-7.58-1.04-11.26-2.21l-2.73-0.95l-1.36-0.48c-0.44-0.16-0.93-0.39-1.34-0.56c-0.8-0.35-1.45-0.58-2.12-0.66
				c-0.65-0.08-1.38-0.01-1.97,0.17c-1.19,0.36-2.16,1.36-2.86,2.76c-0.69,1.39-1.13,3.1-1.43,4.8c-0.59,3.45-0.57,7.12-0.9,10.95
				l-1,11.05c-0.67,7.37-1.09,14.76-1.41,22.15c-0.28,7.39-0.51,14.8-0.55,22.2c-0.05,7.41,0.09,14.81,0.24,22.23l-0.43-0.47l0,0
				c4.46,0.28,8.9,0.7,13.33,1.06c4.43,0.39,8.86,0.74,13.29,1.08c4.43,0.3,8.85,0.62,13.27,0.79
				C71.38,122.23,75.8,122.36,80.21,122.34z"/>
		</g>
		<g>
			<path class="st1" d="M32.44,114.63c18.88,2.74,38.77,4.79,58.22,3.74c10.67-0.58,21.32-2.12,31.99-1.66
				c2.68,0.12,5.68,0.25,7.69-1.52c1.26-1.12,1.87-2.78,2.38-4.39c8.19-25.66,4.93-53.45,0.28-79.98c-0.17-0.97-0.36-1.99-0.96-2.78
				c-1.06-1.41-3.05-1.67-4.81-1.76c-15.47-0.79-30.79,2.78-46.16,4.75c-8.06,1.03-16.24,1.59-24.35,0.87
				c-4.14-0.36-4.26,0.09-8.25-1.05c-1.77-0.51-7.34-1.31-9.23-1.31c-3.39,0-3.51-0.16-4.38,2.45c-1.34,4.01-0.72,6.25-0.73,10.49
				c-0.01,6.72,0.89,10.16-1.09,13.65c-4.49,7.95-0.97,18.24-1.1,27.37C31.81,93.88,30.76,104.67,32.44,114.63z"/>
			<path d="M32.44,114.63c15.29,2.04,30.69,3.56,46.09,3.51c3.85-0.01,7.7-0.03,11.54-0.24c3.84-0.19,7.68-0.52,11.53-0.84
				c3.85-0.32,7.7-0.63,11.57-0.8c1.93-0.09,3.87-0.12,5.81-0.12c1.93-0.01,3.9,0.12,5.78,0.14c1.87,0.01,3.8-0.24,5.15-1.37
				c1.36-1.12,1.96-2.98,2.5-4.81c1.1-3.67,2.08-7.39,2.76-11.17c1.42-7.55,2.04-15.24,2.07-22.93
				c-0.01-15.39-2.19-30.74-4.88-45.87c-0.19-0.91-0.51-1.71-1.15-2.23c-0.64-0.53-1.51-0.81-2.41-0.95
				c-0.9-0.15-1.86-0.16-2.82-0.2c-0.96-0.04-1.92-0.07-2.88-0.06c-3.84-0.02-7.68,0.2-11.51,0.57c-7.66,0.73-15.26,2.04-22.9,3.2
				c-7.63,1.16-15.33,2.17-23.09,2.26c-1.94,0.03-3.88,0-5.82-0.1c-1.95-0.08-3.87-0.32-5.77-0.37c-0.95-0.03-1.96-0.06-2.95-0.25
				c-0.98-0.17-1.93-0.44-2.86-0.69c-1.81-0.44-3.74-0.72-5.63-0.97c-0.95-0.12-1.91-0.23-2.84-0.28c-0.91-0.02-1.95-0.04-2.81,0.03
				c-0.45,0.06-0.71,0.15-0.9,0.43c-0.21,0.29-0.37,0.74-0.53,1.18c-0.31,0.9-0.58,1.79-0.74,2.71c-0.36,1.83-0.25,3.72-0.17,5.66
				c0.09,1.95,0.03,3.87,0.11,5.79c0.06,1.92,0.2,3.85,0.08,5.83c-0.06,0.99-0.22,2-0.54,2.96c-0.31,0.97-0.85,1.87-1.23,2.68
				c-0.8,1.69-1.29,3.52-1.53,5.39c-0.24,1.87-0.24,3.78-0.17,5.69c0.13,3.82,0.68,7.65,0.9,11.53c0.11,1.94,0.07,3.89,0,5.82
				l-0.25,5.79C31.63,99.23,31.26,106.98,32.44,114.63z M32.44,114.63c-1.35-7.62-1.14-15.41-0.97-23.11l0.12-5.78
				c0.03-1.93,0.03-3.84-0.12-5.75c-0.29-3.83-0.93-7.64-1.15-11.53c-0.22-3.86,0.07-7.93,1.79-11.55c0.44-0.93,0.91-1.7,1.18-2.57
				c0.29-0.87,0.43-1.78,0.49-2.72c0.11-1.87-0.03-3.8-0.09-5.73c-0.08-1.94-0.03-3.88-0.11-5.78c-0.08-1.91-0.2-3.91,0.18-5.88
				c0.18-0.98,0.46-1.94,0.78-2.86c0.17-0.46,0.31-0.94,0.67-1.44c0.17-0.25,0.45-0.48,0.75-0.61c0.3-0.14,0.58-0.17,0.85-0.22
				c1.06-0.08,1.95-0.05,2.97-0.03c0.99,0.05,1.95,0.16,2.92,0.28c1.93,0.26,3.83,0.52,5.77,0.99c0.94,0.26,1.84,0.51,2.77,0.67
				c0.91,0.17,1.84,0.2,2.81,0.23c1.96,0.06,3.87,0.3,5.78,0.38c1.92,0.1,3.84,0.12,5.75,0.1c7.69-0.09,15.33-1.09,22.95-2.25
				c7.62-1.15,15.24-2.47,22.95-3.21c3.85-0.37,7.73-0.59,11.61-0.58c0.97-0.01,1.94,0.02,2.91,0.06c0.97,0.03,1.94,0.05,2.94,0.21
				c0.99,0.16,2.04,0.46,2.9,1.17c0.88,0.71,1.29,1.82,1.49,2.79c2.71,15.23,4.89,30.58,4.9,46.09c-0.02,7.74-0.65,15.49-2.08,23.11
				c-0.68,3.82-1.67,7.57-2.79,11.29c-0.27,0.93-0.57,1.87-0.99,2.78c-0.42,0.91-1,1.82-1.82,2.49c-0.81,0.69-1.81,1.1-2.8,1.32
				c-1,0.22-2,0.28-2.99,0.28c-1.97-0.03-3.86-0.15-5.79-0.14c-1.92,0-3.84,0.03-5.76,0.12c-3.84,0.17-7.68,0.48-11.53,0.8
				c-7.68,0.68-15.42,1.19-23.16,1.09C63.05,118.87,47.69,117,32.44,114.63z"/>
		</g>
		<g>
			<path class="st2" d="M37.54,51.28c0.1,4.35-1.75,9.05,0.82,12.55c2.36,3.22,6.14,5.2,10.04,6.03c3.9,0.83,7.96,0.61,11.91,0.11
				c5.1-0.65,10.13-1.76,15.11-3.05c2.86-0.74,6.43-0.83,9.38-0.86c4.61-0.05,8.31,1.06,12.75,2.31c6.02,1.7,12.33,2.36,18.56,1.95
				c2.98-0.2,6.09-0.69,8.49-2.47c1.85-1.37,3.11-3.39,4.18-5.43c1.54-2.94,2.8-6.16,2.65-9.48c-0.2-4.53-3.02-8.76-2.6-13.28
				c0.17-1.85,0.88-3.7,0.48-5.51c-0.49-2.21-2.59-3.78-4.79-4.32c-2.2-0.54-4.51-0.26-6.76,0.03c-6.54,0.84-11.73,0.29-18.27,1.14
				c-11.31,1.46-24.04,4.3-35.47,3.97c-5.57-0.16-11.1-0.82-16.56-1.98c-3.1-0.66-9.47-3.26-10.37,1.43
				C36.17,39.33,37.43,46.06,37.54,51.28z"/>
			<path d="M37.76,51.28c0.04,2.66-0.6,5.24-0.59,7.84c0,1.29,0.2,2.59,0.78,3.74c0.58,1.14,1.49,2.11,2.43,2.99
				c1.94,1.73,4.33,2.93,6.83,3.63c2.51,0.71,5.15,0.93,7.76,0.87c5.23-0.17,10.42-1.12,15.53-2.25c1.28-0.29,2.55-0.59,3.82-0.91
				c1.27-0.34,2.55-0.63,3.85-0.78c2.6-0.3,5.23-0.38,7.85-0.35c2.63,0.07,5.22,0.57,7.75,1.23c2.54,0.65,5.04,1.45,7.61,1.94
				c5.13,1.04,10.41,1.34,15.61,0.89c2.58-0.24,5.23-0.77,7.34-2.29c2.12-1.51,3.45-3.85,4.61-6.16c1.15-2.33,2.08-4.81,2.24-7.39
				c0.18-2.59-0.65-5.1-1.44-7.59c-0.79-2.47-1.55-5.14-1.11-7.83c0.2-1.31,0.54-2.58,0.47-3.83c-0.05-1.24-0.65-2.4-1.58-3.23
				c-0.92-0.84-2.08-1.41-3.31-1.67c-1.24-0.27-2.53-0.28-3.81-0.18c-1.29,0.1-2.58,0.31-3.89,0.45c-1.31,0.14-2.63,0.24-3.94,0.31
				l-7.85,0.29c-2.61,0.11-5.18,0.43-7.77,0.82c-5.17,0.76-10.33,1.7-15.54,2.39c-5.2,0.71-10.45,1.25-15.73,1.23
				c-5.27-0.05-10.53-0.57-15.7-1.55c-1.29-0.25-2.58-0.49-3.87-0.85c-1.27-0.34-2.52-0.69-3.78-0.89
				c-1.25-0.19-2.59-0.24-3.62,0.33c-0.53,0.27-0.86,0.78-1.11,1.31c-0.19,0.56-0.31,1.2-0.38,1.84
				C36.65,40.8,37.66,46.02,37.76,51.28z M37.32,51.29c-0.15-5.21-1.23-10.42-0.7-15.73c0.07-0.66,0.18-1.32,0.4-2
				c0.29-0.64,0.71-1.3,1.37-1.64c0.63-0.35,1.34-0.54,2.02-0.56c0.69-0.05,1.36,0.01,2.03,0.1c1.33,0.19,2.61,0.54,3.87,0.87
				c1.25,0.33,2.54,0.56,3.82,0.79c5.14,0.9,10.35,1.42,15.56,1.43c5.21-0.01,10.41-0.57,15.59-1.31
				c5.18-0.75,10.34-1.61,15.55-2.33c2.59-0.37,5.23-0.67,7.86-0.77l7.86-0.23c1.3-0.06,2.6-0.14,3.9-0.27
				c1.29-0.13,2.59-0.33,3.92-0.42c1.32-0.09,2.68-0.07,4.01,0.23c1.33,0.3,2.6,0.92,3.6,1.87c1.02,0.92,1.7,2.28,1.75,3.67
				c0.06,1.39-0.31,2.68-0.51,3.95c-0.44,2.54,0.25,5.11,1.02,7.59c0.77,2.48,1.6,5.08,1.4,7.77c-0.19,2.67-1.16,5.19-2.34,7.54
				c-1.19,2.32-2.55,4.7-4.76,6.26c-2.2,1.55-4.91,2.07-7.51,2.29c-5.24,0.42-10.53,0.07-15.67-1.01c-2.58-0.52-5.07-1.33-7.6-2
				c-2.53-0.67-5.11-1.19-7.73-1.28c-2.62-0.04-5.25-0.01-7.85,0.32c-1.3,0.15-2.58,0.45-3.84,0.8c-1.27,0.32-2.54,0.64-3.82,0.93
				c-5.11,1.15-10.28,2.13-15.54,2.33c-2.62,0.06-5.27-0.12-7.82-0.81c-2.54-0.69-4.97-1.87-6.97-3.62
				c-0.98-0.89-1.91-1.85-2.53-3.05c-0.62-1.2-0.85-2.55-0.86-3.87C36.78,56.47,37.39,53.88,37.32,51.29z"/>
		</g>
		<path class="st3" d="M47.55,99.35c3.44-1.64,6.7-3.8,10.42-4.64c1.92-0.43,3.9-0.49,5.81-0.97c3.23-0.8,6.05-2.72,9.09-4.07
			c3.04-1.35,6.7-2.08,9.61-0.47c1.6,0.88,2.77,2.35,4.14,3.56c3.89,3.44,9.28,4.66,14.47,4.85c5.19,0.19,10.37-0.52,15.56-0.38
			c3.04,0.08,6.19,0.51,8.72,2.19c3.26,2.16,5,6.39,4.21,10.22c-0.17,0.85-0.46,1.68-0.96,2.38c-2.04,2.87-6.3,2.46-9.8,2.18
			c-4.24-0.34-8.5-0.03-12.75,0.22c-12.84,0.76-25.7,1.05-38.56,0.87c-6.48-0.09-12.96-0.31-19.43-0.64
			c-3.67-0.19-12.58,1.14-13-4.2C34.57,104.15,43.22,101.42,47.55,99.35z"/>
	</g>
	<g id="Pause_icon">
		<path class="st4" d="M98.47,49c1.02-3.84,2.89-8.12,6.73-9.14c2.8-0.74,5.84,0.64,7.72,2.85c1.87,2.2,2.74,5.09,3.19,7.95
			c1.45,9.2-0.96,18.5-2.05,27.75c-1.02,8.71-0.94,17.84-4.76,25.74c-0.76,1.57-1.71,3.12-3.18,4.05
			c-9.33,5.94-9.59-20.45-9.9-24.48C95.32,72.11,95.48,60.3,98.47,49z"/>
		<g>
			<path class="st5" d="M53.44,92.76c0.17,4,0.47,8.33,3.1,11.34c1.87,2.14,4.81,3.3,7.64,3c2.83-0.3,5.47-2.04,6.85-4.52
				c1.32-2.37,1.49-5.18,1.6-7.89c0.56-13.11,0.53-26.23,0.5-39.34c0-2.08-0.05-4.31-1.23-6.03c-1.29-1.88-3.65-2.71-5.91-3.08
				c-3.69-0.6-10.18-0.82-13.01,2.23c-2.12,2.29-1.25,6.04-1.08,8.84C52.6,69.11,52.93,80.94,53.44,92.76z"/>
			<path d="M54.39,92.72c0.1,3.04,0.24,6.1,1.43,8.72c0.59,1.3,1.45,2.45,2.57,3.3c1.12,0.85,2.47,1.42,3.87,1.62
				c2.8,0.44,5.79-0.81,7.57-3.07c0.9-1.11,1.45-2.49,1.77-3.94c0.33-1.45,0.43-2.97,0.5-4.5c0.28-6.15,0.44-12.31,0.46-18.47
				c0.03-6.16,0.02-12.32-0.08-18.48c-0.03-1.53,0-3.11-0.11-4.57c-0.11-1.47-0.46-2.87-1.32-3.88c-0.85-1.02-2.16-1.66-3.54-2.04
				c-1.39-0.37-2.9-0.53-4.39-0.61c-1.49-0.08-2.99-0.03-4.43,0.18c-1.44,0.2-2.84,0.63-3.97,1.33c-0.54,0.37-1.03,0.8-1.35,1.3
				c-0.33,0.51-0.53,1.11-0.64,1.77c-0.22,1.33-0.06,2.81,0.1,4.33C53.64,68.09,53.99,80.37,54.39,92.72z M52.49,92.8l-0.98-18.46
				l-0.39-9.23l-0.17-4.62c-0.07-1.54-0.07-3.09-0.23-4.58c-0.13-1.53-0.31-3.16-0.01-4.88c0.15-0.86,0.45-1.74,0.98-2.52
				c0.53-0.79,1.24-1.38,1.97-1.86c1.52-0.89,3.15-1.31,4.76-1.51c1.61-0.2,3.21-0.21,4.79-0.09c1.58,0.13,3.15,0.32,4.73,0.78
				c1.55,0.47,3.15,1.25,4.27,2.64c1.13,1.4,1.47,3.17,1.56,4.75c0.08,1.61,0.01,3.12,0.01,4.67l-0.18,18.5
				c-0.11,6.17-0.23,12.33-0.47,18.5c-0.07,1.54-0.14,3.12-0.45,4.69c-0.31,1.56-0.89,3.14-1.91,4.46
				c-1.98,2.63-5.38,4.18-8.73,3.75c-1.66-0.19-3.25-0.82-4.61-1.8c-1.37-0.98-2.44-2.35-3.16-3.84
				C52.86,99.13,52.67,95.87,52.49,92.8z"/>
		</g>
		<g>
			<path class="st5" d="M93.1,92.76c0.17,4,0.47,8.33,3.1,11.34c1.87,2.14,4.81,3.3,7.64,3s5.47-2.04,6.85-4.52
				c1.32-2.37,1.49-5.18,1.6-7.89c0.56-13.11,0.53-26.23,0.5-39.34c0-2.08-0.05-4.31-1.23-6.03c-1.29-1.88-3.65-2.71-5.91-3.08
				c-3.69-0.6-10.18-0.82-13.01,2.23c-2.12,2.29-1.25,6.04-1.08,8.84C92.26,69.11,92.59,80.94,93.1,92.76z"/>
			<path d="M93.89,92.72c0.2,3.04,0.47,6.11,1.73,8.65c0.63,1.26,1.5,2.34,2.61,3.11c1.11,0.77,2.42,1.25,3.75,1.38
				c2.64,0.29,5.31-1.02,6.83-3.1c1.54-2.05,1.75-4.94,1.81-7.96c0.37-12.27,0.49-24.57,0.69-36.9c0-3.08,0.44-6.28-1.02-8.12
				c-0.72-0.93-1.91-1.59-3.24-2.01c-1.32-0.41-2.83-0.62-4.3-0.76c-1.48-0.13-2.96-0.14-4.41,0.02c-1.45,0.15-2.85,0.52-4.03,1.19
				c-0.56,0.36-1.09,0.78-1.44,1.29c-0.37,0.52-0.6,1.15-0.73,1.83c-0.26,1.37-0.14,2.88-0.02,4.41c0.3,6.21,0.36,12.34,0.67,18.51
				C93.07,80.41,93.51,86.57,93.89,92.72z M92.31,92.79c-0.15-6.16-0.25-12.33-0.5-18.48c-0.14-3.08-0.28-6.16-0.47-9.23l-0.26-4.61
				c-0.1-1.54-0.14-3.08-0.34-4.58c-0.17-1.53-0.38-3.12-0.13-4.81c0.13-0.84,0.4-1.7,0.89-2.46c0.49-0.78,1.17-1.37,1.88-1.87
				c1.47-0.93,3.09-1.41,4.69-1.65c1.61-0.25,3.22-0.32,4.81-0.25c1.6,0.08,3.18,0.21,4.83,0.63c1.61,0.43,3.32,1.2,4.58,2.67
				c1.27,1.5,1.69,3.4,1.83,5.03c0.13,1.68,0.11,3.17,0.16,4.72c0.25,12.33,0.35,24.69-0.33,37.05c-0.1,1.55-0.22,3.18-0.61,4.84
				c-0.38,1.65-1.06,3.36-2.21,4.77c-2.24,2.81-5.96,4.3-9.47,3.73c-1.73-0.27-3.37-0.98-4.74-2.04c-1.38-1.06-2.44-2.5-3.11-4.03
				C92.47,99.12,92.39,95.86,92.31,92.79z"/>
		</g>
	</g>
</g>
<g id="Play">
	<g id="Base">
		<g>
			<path class="st0" d="M235.82,124.31c-16.77,0-33.24-1.95-48.54-4.07l-4.67-0.65l-0.21-4.71c-0.48-10.43-0.64-21.02-0.49-31.46
				c0.13-9.19,0.5-18.5,1.11-27.67c0.3-4.58,0.67-9.22,1.1-13.8c0.1-1.13,0.16-2.41,0.21-3.77c0.15-3.54,0.31-7.56,1.5-11.12
				c1.26-3.79,3.49-5.72,6.62-5.72c1.5,0,2.68,0.51,3.63,0.92c0.25,0.11,0.54,0.24,0.89,0.37c1.63,0.65,3.17,1.17,4.7,1.61
				c3.4,0.97,7.16,1.65,11.18,2c2.26,0.2,4.65,0.3,7.09,0.3c4.76,0,10.01-0.38,16.04-1.15c4.05-0.52,8.2-1.17,12.22-1.79
				c9.79-1.53,19.91-3.11,30.14-3.11c1.63,0,3.25,0.04,4.81,0.12c1.71,0.09,6.26,0.32,9.05,4.01c1.43,1.9,1.8,3.97,2.01,5.21
				c4.77,27.23,8.02,56.09-0.46,82.68c-0.52,1.63-1.49,4.67-4.02,6.91c-3.05,2.69-6.79,3.01-9.34,3.01c-0.78,0-1.55-0.03-2.31-0.06
				c-1.26-0.05-2.55-0.08-3.86-0.08c-5.62,0-11.18,0.47-17.08,0.96c-3.44,0.29-7,0.58-10.54,0.78
				C243.1,124.21,239.48,124.31,235.82,124.31z"/>
			<path d="M235.82,126.28c-4.5-0.03-8.99-0.17-13.46-0.46c-4.47-0.33-8.94-0.71-13.38-1.28c-4.44-0.53-8.87-1.2-13.28-1.93
				c-4.4-0.76-8.79-1.57-13.16-2.51l0,0l-0.4-0.08l-0.03-0.39c-0.57-7.4-0.98-14.83-1.2-22.26c-0.22-7.43-0.33-14.87-0.16-22.31
				c0.15-7.44,0.4-14.87,0.91-22.3l0.76-11.13c0.21-3.56,0.15-7.34,0.76-11.23c0.33-1.94,0.77-3.88,1.7-5.84
				c0.48-0.97,1.08-1.93,1.92-2.77c0.83-0.83,1.9-1.54,3.07-1.91c1.18-0.38,2.34-0.48,3.53-0.36c1.18,0.12,2.3,0.52,3.2,0.91
				c0.45,0.18,0.8,0.35,1.23,0.5l1.27,0.43l2.54,0.86c3.4,1.07,6.96,1.66,10.55,2.03c1.8,0.16,3.62,0.17,5.42,0.26
				c0.91,0.03,1.81,0.09,2.71,0.09c0.91,0,1.82-0.02,2.73-0.06c3.64-0.12,7.28-0.45,10.92-0.88c3.64-0.43,7.31-1.02,10.96-1.52
				c7.3-1.07,14.7-2.2,22.18-2.79c3.74-0.27,7.5-0.41,11.27-0.34c1.89,0.1,3.74,0.14,5.67,0.28c1.97,0.18,4.01,0.67,5.83,1.71
				c1.83,1.03,3.34,2.65,4.24,4.53c0.45,0.94,0.75,1.93,0.95,2.9c0.2,0.99,0.31,1.88,0.45,2.8c0.56,3.67,1.1,7.35,1.56,11.04
				c1.82,14.75,3.04,29.66,1.89,44.51l-0.51,5.56c-0.26,1.84-0.48,3.69-0.77,5.53c-0.36,1.83-0.6,3.68-1,5.5l-0.6,2.73
				c-0.19,0.91-0.4,1.82-0.66,2.72c-0.53,1.8-0.9,3.6-1.52,5.42c-0.62,1.81-1.52,3.6-2.87,5.09c-1.34,1.49-3.08,2.63-4.97,3.3
				c-1.89,0.68-3.89,0.92-5.81,0.95l-5.57,0.02c-1.83,0.02-3.66,0.13-5.49,0.25c-3.67,0.25-7.33,0.67-11.02,1.04l-11.14,1
				L235.82,126.28z M235.82,122.34l11.02-0.24l11.06-0.66c3.7-0.24,7.44-0.42,11.18-0.49c1.87-0.03,3.75-0.03,5.63,0.04l5.56,0.28
				c1.78,0.06,3.53-0.06,5.17-0.56c1.64-0.48,3.14-1.36,4.35-2.57c1.21-1.21,2.11-2.75,2.78-4.41c0.66-1.67,1.17-3.48,1.72-5.23
				c2.1-7.07,3.35-14.4,3.92-21.78c1.05-14.78-0.33-29.63-2.81-44.21c-0.6-3.65-1.27-7.29-1.97-10.93c-0.35-1.86-0.62-3.59-1.4-5.02
				c-0.76-1.44-1.94-2.61-3.38-3.35c-1.44-0.75-3.1-1.1-4.82-1.19c-1.78-0.06-3.64-0.03-5.46-0.06c-3.65,0.07-7.31,0.34-10.96,0.75
				c-3.65,0.39-7.29,0.89-10.94,1.47c-3.65,0.57-7.29,1.21-10.98,1.74c-3.69,0.54-7.35,1.16-11.07,1.63
				c-3.73,0.44-7.48,0.75-11.26,0.88c-0.94,0.03-1.89,0.05-2.84,0.05c-0.95,0-1.9-0.07-2.85-0.1c-1.9-0.1-3.79-0.12-5.69-0.3
				c-3.79-0.4-7.58-1.04-11.26-2.21l-2.73-0.95l-1.36-0.48c-0.44-0.16-0.93-0.39-1.34-0.56c-0.8-0.35-1.45-0.58-2.12-0.66
				c-0.65-0.08-1.38-0.01-1.97,0.17c-1.19,0.36-2.16,1.36-2.86,2.76c-0.69,1.39-1.13,3.1-1.43,4.8c-0.59,3.45-0.57,7.12-0.9,10.95
				l-1,11.05c-0.67,7.37-1.09,14.76-1.41,22.15c-0.28,7.39-0.51,14.8-0.55,22.2c-0.05,7.41,0.09,14.81,0.24,22.23l-0.43-0.47l0,0
				c4.46,0.28,8.9,0.7,13.33,1.06c4.43,0.39,8.86,0.74,13.29,1.08c4.43,0.3,8.85,0.62,13.27,0.79
				C226.99,122.23,231.41,122.36,235.82,122.34z"/>
		</g>
		<g>
			<path class="st1" d="M188.05,114.63c18.88,2.74,38.77,4.79,58.22,3.74c10.67-0.58,21.32-2.12,31.99-1.66
				c2.68,0.12,5.68,0.25,7.69-1.52c1.26-1.12,1.87-2.78,2.38-4.39c8.19-25.66,4.93-53.45,0.28-79.98c-0.17-0.97-0.36-1.99-0.96-2.78
				c-1.06-1.41-3.05-1.67-4.81-1.76c-15.47-0.79-30.79,2.78-46.16,4.75c-8.06,1.03-16.24,1.59-24.35,0.87
				c-4.14-0.36-4.26,0.09-8.25-1.05c-1.77-0.51-7.34-1.31-9.23-1.31c-3.39,0-3.51-0.16-4.38,2.45c-1.34,4.01-0.72,6.25-0.73,10.49
				c-0.01,6.72,0.89,10.16-1.09,13.65c-4.49,7.95-0.97,18.24-1.1,27.37C187.42,93.88,186.37,104.67,188.05,114.63z"/>
			<path d="M188.05,114.63c15.29,2.04,30.69,3.56,46.09,3.51c3.85-0.01,7.7-0.03,11.54-0.24c3.84-0.19,7.68-0.52,11.53-0.84
				c3.85-0.32,7.7-0.63,11.57-0.8c1.93-0.09,3.87-0.12,5.81-0.12c1.93-0.01,3.9,0.12,5.78,0.14c1.87,0.01,3.8-0.24,5.15-1.37
				c1.36-1.12,1.96-2.98,2.5-4.81c1.1-3.67,2.08-7.39,2.76-11.17c1.42-7.55,2.04-15.24,2.07-22.93
				c-0.01-15.39-2.19-30.74-4.88-45.87c-0.19-0.91-0.51-1.71-1.15-2.23c-0.64-0.53-1.51-0.81-2.41-0.95
				c-0.9-0.15-1.86-0.16-2.82-0.2c-0.96-0.04-1.92-0.07-2.88-0.06c-3.84-0.02-7.68,0.2-11.51,0.57c-7.66,0.73-15.26,2.04-22.9,3.2
				c-7.63,1.16-15.33,2.17-23.09,2.26c-1.94,0.03-3.88,0-5.82-0.1c-1.95-0.08-3.87-0.32-5.77-0.37c-0.95-0.03-1.96-0.06-2.95-0.25
				c-0.98-0.17-1.93-0.44-2.86-0.69c-1.81-0.44-3.74-0.72-5.63-0.97c-0.95-0.12-1.91-0.23-2.84-0.28c-0.91-0.02-1.95-0.04-2.81,0.03
				c-0.45,0.06-0.71,0.15-0.9,0.43c-0.21,0.29-0.37,0.74-0.53,1.18c-0.31,0.9-0.58,1.79-0.74,2.71c-0.36,1.83-0.25,3.72-0.17,5.66
				c0.09,1.95,0.03,3.87,0.11,5.79c0.06,1.92,0.2,3.85,0.08,5.83c-0.06,0.99-0.22,2-0.54,2.96c-0.31,0.97-0.85,1.87-1.23,2.68
				c-0.8,1.69-1.29,3.52-1.53,5.39c-0.24,1.87-0.24,3.78-0.17,5.69c0.13,3.82,0.68,7.65,0.9,11.53c0.11,1.94,0.07,3.89,0,5.82
				l-0.25,5.79C187.24,99.23,186.87,106.98,188.05,114.63z M188.05,114.63c-1.35-7.62-1.14-15.41-0.97-23.11l0.12-5.78
				c0.03-1.93,0.03-3.84-0.12-5.75c-0.29-3.83-0.93-7.64-1.15-11.53c-0.22-3.86,0.07-7.93,1.79-11.55c0.44-0.93,0.91-1.7,1.18-2.57
				c0.29-0.87,0.43-1.78,0.49-2.72c0.11-1.87-0.03-3.8-0.09-5.73c-0.08-1.94-0.03-3.88-0.11-5.78c-0.08-1.91-0.2-3.91,0.18-5.88
				c0.18-0.98,0.46-1.94,0.78-2.86c0.17-0.46,0.31-0.94,0.67-1.44c0.17-0.25,0.45-0.48,0.75-0.61c0.3-0.14,0.58-0.17,0.85-0.22
				c1.06-0.08,1.95-0.05,2.97-0.03c0.99,0.05,1.95,0.16,2.92,0.28c1.93,0.26,3.83,0.52,5.77,0.99c0.94,0.26,1.84,0.51,2.77,0.67
				c0.91,0.17,1.84,0.2,2.81,0.23c1.96,0.06,3.87,0.3,5.78,0.38c1.92,0.1,3.84,0.12,5.75,0.1c7.69-0.09,15.33-1.09,22.95-2.25
				c7.62-1.15,15.24-2.47,22.95-3.21c3.85-0.37,7.73-0.59,11.61-0.58c0.97-0.01,1.94,0.02,2.91,0.06c0.97,0.03,1.94,0.05,2.95,0.21
				c0.99,0.16,2.04,0.46,2.9,1.17c0.88,0.71,1.29,1.82,1.49,2.79c2.71,15.23,4.89,30.58,4.9,46.09c-0.02,7.74-0.65,15.49-2.08,23.11
				c-0.68,3.82-1.67,7.57-2.79,11.29c-0.27,0.93-0.57,1.87-0.99,2.78c-0.42,0.91-1,1.82-1.82,2.49c-0.81,0.69-1.81,1.1-2.8,1.32
				c-1,0.22-2,0.28-2.99,0.28c-1.97-0.03-3.86-0.15-5.79-0.14c-1.92,0-3.84,0.03-5.76,0.12c-3.84,0.17-7.68,0.48-11.53,0.8
				c-7.68,0.68-15.42,1.19-23.16,1.09C218.66,118.87,203.3,117,188.05,114.63z"/>
		</g>
		<g>
			<path class="st2" d="M193.15,51.28c0.1,4.35-1.75,9.05,0.82,12.55c2.36,3.22,6.14,5.2,10.04,6.03c3.9,0.83,7.96,0.61,11.91,0.11
				c5.1-0.65,10.13-1.76,15.11-3.05c2.86-0.74,6.43-0.83,9.38-0.86c4.61-0.05,8.31,1.06,12.75,2.31c6.02,1.7,12.33,2.36,18.56,1.95
				c2.98-0.2,6.09-0.69,8.49-2.47c1.85-1.37,3.11-3.39,4.18-5.43c1.54-2.94,2.8-6.16,2.65-9.48c-0.2-4.53-3.02-8.76-2.6-13.28
				c0.17-1.85,0.88-3.7,0.48-5.51c-0.49-2.21-2.59-3.78-4.79-4.32s-4.51-0.26-6.76,0.03c-6.54,0.84-11.73,0.29-18.27,1.14
				c-11.31,1.46-24.04,4.3-35.47,3.97c-5.57-0.16-11.1-0.82-16.56-1.98c-3.1-0.66-9.47-3.26-10.37,1.43
				C191.78,39.33,193.04,46.06,193.15,51.28z"/>
			<path d="M193.37,51.28c0.04,2.66-0.6,5.24-0.59,7.84c0,1.29,0.2,2.59,0.78,3.74c0.58,1.14,1.49,2.11,2.43,2.99
				c1.94,1.73,4.33,2.93,6.83,3.63c2.51,0.71,5.15,0.93,7.76,0.87c5.23-0.17,10.42-1.12,15.53-2.25c1.28-0.29,2.55-0.59,3.82-0.91
				c1.27-0.34,2.55-0.63,3.85-0.78c2.6-0.3,5.23-0.38,7.85-0.35c2.62,0.07,5.22,0.57,7.75,1.23c2.54,0.65,5.04,1.45,7.61,1.94
				c5.13,1.04,10.41,1.34,15.61,0.89c2.58-0.24,5.23-0.77,7.34-2.29c2.12-1.51,3.45-3.85,4.61-6.16c1.15-2.33,2.08-4.81,2.24-7.39
				c0.18-2.59-0.65-5.1-1.44-7.59c-0.79-2.47-1.55-5.14-1.11-7.83c0.2-1.31,0.54-2.58,0.47-3.83c-0.05-1.24-0.65-2.4-1.58-3.23
				c-0.92-0.84-2.08-1.41-3.31-1.67c-1.24-0.27-2.53-0.28-3.81-0.18c-1.29,0.1-2.58,0.31-3.89,0.45c-1.31,0.14-2.63,0.24-3.94,0.31
				l-7.85,0.29c-2.61,0.11-5.18,0.43-7.77,0.82c-5.17,0.76-10.33,1.7-15.54,2.39c-5.2,0.71-10.45,1.25-15.73,1.23
				c-5.27-0.05-10.53-0.57-15.7-1.55c-1.29-0.25-2.58-0.49-3.87-0.85c-1.27-0.34-2.52-0.69-3.78-0.89
				c-1.25-0.19-2.59-0.24-3.62,0.33c-0.53,0.27-0.86,0.78-1.11,1.31c-0.19,0.56-0.31,1.2-0.38,1.84
				C192.26,40.8,193.27,46.02,193.37,51.28z M192.93,51.29c-0.15-5.21-1.23-10.42-0.7-15.73c0.07-0.66,0.18-1.32,0.4-2
				c0.29-0.64,0.71-1.3,1.37-1.64c0.63-0.35,1.34-0.54,2.02-0.56c0.69-0.05,1.36,0.01,2.03,0.1c1.33,0.19,2.61,0.54,3.87,0.87
				c1.25,0.33,2.54,0.56,3.82,0.79c5.14,0.9,10.35,1.42,15.56,1.43c5.21-0.01,10.41-0.57,15.59-1.31
				c5.18-0.75,10.34-1.61,15.55-2.33c2.59-0.37,5.23-0.67,7.86-0.77l7.86-0.23c1.3-0.06,2.6-0.14,3.9-0.27
				c1.29-0.13,2.59-0.33,3.92-0.42c1.32-0.09,2.68-0.07,4.01,0.23c1.33,0.3,2.6,0.92,3.6,1.87c1.02,0.92,1.7,2.28,1.75,3.67
				c0.06,1.39-0.31,2.68-0.51,3.95c-0.44,2.54,0.25,5.11,1.02,7.59c0.77,2.48,1.6,5.08,1.4,7.77c-0.19,2.67-1.16,5.19-2.34,7.54
				c-1.19,2.32-2.55,4.7-4.76,6.26c-2.2,1.55-4.91,2.07-7.51,2.29c-5.24,0.42-10.53,0.07-15.67-1.01c-2.58-0.52-5.07-1.33-7.6-2
				c-2.53-0.67-5.11-1.19-7.73-1.28c-2.62-0.04-5.25-0.01-7.85,0.32c-1.3,0.15-2.58,0.45-3.84,0.8c-1.27,0.32-2.54,0.64-3.82,0.93
				c-5.11,1.15-10.28,2.13-15.54,2.33c-2.62,0.06-5.27-0.12-7.82-0.81c-2.54-0.69-4.97-1.87-6.97-3.62
				c-0.98-0.89-1.91-1.85-2.53-3.05c-0.62-1.2-0.85-2.55-0.86-3.87C192.39,56.47,193,53.88,192.93,51.29z"/>
		</g>
		<path class="st3" d="M203.16,99.35c3.44-1.64,6.7-3.8,10.42-4.64c1.92-0.43,3.9-0.49,5.81-0.97c3.23-0.8,6.05-2.72,9.09-4.07
			s6.7-2.08,9.61-0.47c1.6,0.88,2.77,2.35,4.14,3.56c3.89,3.44,9.28,4.66,14.47,4.85c5.19,0.19,10.37-0.52,15.56-0.38
			c3.04,0.08,6.19,0.51,8.72,2.19c3.26,2.16,5,6.39,4.21,10.22c-0.17,0.85-0.46,1.68-0.96,2.38c-2.04,2.87-6.3,2.46-9.8,2.18
			c-4.24-0.34-8.5-0.03-12.75,0.22c-12.84,0.76-25.7,1.05-38.56,0.87c-6.48-0.09-12.96-0.31-19.43-0.64
			c-3.67-0.19-12.58,1.14-13-4.2C190.18,104.15,198.83,101.42,203.16,99.35z"/>
	</g>
	<g id="Play_icon">
		<g>
			<path class="st5" d="M209.29,91.32c0.02,3.08,0.38,6.56,2.97,8.47c2.52,1.86,6.15,1.48,9.24,0.65
				c14.54-3.92,25.64-15.24,39.96-19.82c2.06-0.66,4.19-1.18,6.07-2.19c1.89-1.01,3.55-2.62,3.93-4.61c0.55-2.86-1.7-5.64-4.43-7.05
				s-5.9-1.8-8.92-2.53c-12.42-2.99-22.13-11.37-33.6-16.3c-3.54-1.53-12.27-5.9-13.29-0.16c-0.45,2.56,0.23,5.62,0.15,8.22
				c-0.11,3.65-0.37,7.29-0.66,10.93C210.08,75.05,209.23,83.17,209.29,91.32z"/>
			<path d="M211.46,91.3c-0.03,1.87,0.08,3.67,0.64,5.05c0.55,1.37,1.5,2.26,2.97,2.66c1.46,0.41,3.28,0.29,5.06-0.07
				c1.8-0.4,3.68-0.96,5.48-1.61c7.28-2.59,14.01-6.9,20.98-10.8c3.49-1.95,7.08-3.8,10.84-5.26c0.93-0.39,1.89-0.69,2.85-1.01
				c0.95-0.33,1.93-0.59,2.88-0.87c1.89-0.56,3.76-1.15,5.27-2.25c1.51-1.07,2.7-2.71,2.55-4.51c-0.11-1.79-1.34-3.42-2.81-4.56
				c-1.5-1.14-3.36-1.8-5.26-2.27c-1.9-0.48-3.88-0.78-5.82-1.32c-3.9-1.02-7.64-2.55-11.22-4.33c-3.59-1.78-7.05-3.78-10.53-5.69
				c-3.47-1.93-6.97-3.78-10.58-5.3c-1.84-0.77-3.65-1.57-5.47-2.16c-0.91-0.3-1.82-0.55-2.72-0.7c-0.89-0.15-1.78-0.2-2.47-0.04
				c-0.71,0.18-1.06,0.46-1.29,1.01c-0.23,0.52-0.29,1.45-0.28,2.34c0.03,1.82,0.4,3.77,0.46,5.95c-0.03,2.09-0.13,4.03-0.21,6.05
				l-0.25,6.01c-0.24,3.99-0.52,7.95-0.71,11.89C211.67,83.49,211.54,87.41,211.46,91.3z M207.12,91.34
				c-0.13-4.06,0.12-8.1,0.49-12.09c0.36-3.99,0.8-7.95,1.2-11.9l0.96-11.77c0.06-1.8-0.22-3.81-0.16-5.97
				c0.06-1.08,0.1-2.2,0.69-3.5c0.29-0.62,0.78-1.24,1.39-1.65c0.61-0.42,1.28-0.65,1.91-0.76c1.27-0.21,2.4-0.04,3.45,0.19
				c1.06,0.24,2.05,0.57,3.02,0.94c1.93,0.74,3.73,1.62,5.53,2.46c3.66,1.72,7.13,3.75,10.53,5.82c3.4,2.08,6.78,4.16,10.29,5.97
				c1.75,0.93,3.53,1.76,5.35,2.53c1.83,0.71,3.68,1.41,5.59,1.88c1.88,0.54,3.85,0.85,5.8,1.36c1.94,0.51,3.93,1.15,5.63,2.42
				c1.63,1.25,3.09,3.05,3.26,5.31c0.09,1.11-0.22,2.23-0.77,3.17c-0.55,0.94-1.31,1.72-2.15,2.36c-1.7,1.29-3.69,1.94-5.59,2.55
				c-0.96,0.3-1.89,0.59-2.8,0.95c-0.92,0.34-1.84,0.68-2.73,1.09c-3.6,1.56-7.03,3.52-10.39,5.59c-6.73,4.14-13.22,8.93-20.83,12.1
				c-1.91,0.79-3.82,1.45-5.88,2.01c-2.07,0.5-4.33,0.84-6.76,0.31c-1.2-0.26-2.44-0.81-3.47-1.65c-1.05-0.83-1.82-1.95-2.34-3.08
				C207.34,95.69,207.19,93.42,207.12,91.34z"/>
		</g>
	</g>
</g>
<g id="Base_copy">
	<g>
		<path class="st0" d="M80.21,291.05c-16.77,0-33.24-1.95-48.54-4.07l-4.67-0.65l-0.21-4.71c-0.48-10.43-0.64-21.02-0.49-31.46
			c0.13-9.19,0.5-18.5,1.11-27.67c0.3-4.58,0.67-9.22,1.1-13.8c0.1-1.13,0.16-2.41,0.21-3.77c0.15-3.54,0.31-7.56,1.5-11.12
			c1.26-3.79,3.49-5.72,6.62-5.72c1.5,0,2.68,0.51,3.63,0.92c0.25,0.11,0.54,0.24,0.89,0.37c1.63,0.65,3.17,1.17,4.7,1.61
			c3.4,0.97,7.16,1.65,11.18,2c2.26,0.2,4.65,0.3,7.09,0.3c4.76,0,10.01-0.38,16.04-1.15c4.05-0.52,8.2-1.17,12.22-1.79
			c9.79-1.53,19.91-3.11,30.14-3.11c1.63,0,3.25,0.04,4.81,0.12c1.71,0.09,6.26,0.32,9.05,4.01c1.43,1.9,1.8,3.97,2.01,5.21
			c4.77,27.23,8.02,56.09-0.46,82.68c-0.52,1.63-1.49,4.67-4.02,6.91c-3.05,2.69-6.79,3.01-9.34,3.01c-0.78,0-1.55-0.03-2.31-0.06
			c-1.26-0.05-2.55-0.08-3.86-0.08c-5.62,0-11.18,0.47-17.08,0.96c-3.44,0.29-7,0.58-10.54,0.78
			C87.49,290.95,83.87,291.05,80.21,291.05z"/>
		<path d="M80.21,293.01c-4.5-0.03-8.99-0.17-13.46-0.46c-4.47-0.33-8.94-0.71-13.38-1.28c-4.44-0.53-8.87-1.2-13.28-1.93
			c-4.4-0.76-8.79-1.57-13.16-2.51l0,0l-0.4-0.08l-0.03-0.39c-0.57-7.4-0.98-14.83-1.2-22.26c-0.22-7.43-0.33-14.87-0.16-22.31
			c0.15-7.44,0.4-14.87,0.91-22.3l0.76-11.13c0.21-3.56,0.15-7.34,0.76-11.23c0.33-1.94,0.77-3.88,1.7-5.84
			c0.48-0.97,1.08-1.93,1.92-2.77c0.83-0.83,1.9-1.54,3.07-1.91c1.18-0.38,2.34-0.48,3.53-0.36c1.18,0.12,2.3,0.52,3.2,0.91
			c0.45,0.18,0.8,0.35,1.23,0.5l1.27,0.43l2.54,0.86c3.4,1.07,6.96,1.66,10.55,2.03c1.8,0.16,3.62,0.17,5.42,0.26
			c0.91,0.03,1.81,0.09,2.71,0.09c0.91,0,1.82-0.02,2.73-0.06c3.64-0.12,7.28-0.45,10.92-0.88c3.64-0.43,7.31-1.02,10.96-1.52
			c7.3-1.07,14.7-2.2,22.18-2.79c3.74-0.27,7.5-0.41,11.27-0.34c1.89,0.1,3.74,0.14,5.67,0.28c1.97,0.18,4.01,0.67,5.83,1.71
			c1.83,1.03,3.34,2.65,4.24,4.53c0.45,0.94,0.75,1.93,0.95,2.9c0.2,0.99,0.31,1.88,0.45,2.8c0.56,3.67,1.1,7.35,1.56,11.04
			c1.82,14.75,3.04,29.66,1.89,44.51l-0.51,5.56c-0.26,1.84-0.48,3.69-0.77,5.53c-0.36,1.83-0.6,3.68-1,5.5l-0.6,2.73
			c-0.19,0.91-0.4,1.82-0.66,2.72c-0.53,1.8-0.9,3.6-1.52,5.42c-0.62,1.81-1.52,3.6-2.87,5.09c-1.34,1.49-3.08,2.63-4.97,3.3
			c-1.89,0.68-3.89,0.92-5.81,0.95l-5.57,0.02c-1.83,0.02-3.66,0.13-5.49,0.25c-3.67,0.25-7.33,0.67-11.02,1.04l-11.14,1
			L80.21,293.01z M80.21,289.08l11.02-0.24l11.06-0.66c3.7-0.24,7.44-0.42,11.18-0.49c1.87-0.03,3.75-0.03,5.63,0.04l5.56,0.28
			c1.78,0.06,3.53-0.06,5.17-0.56c1.64-0.48,3.14-1.36,4.35-2.57c1.21-1.21,2.11-2.75,2.78-4.41c0.66-1.67,1.17-3.48,1.72-5.23
			c2.1-7.07,3.35-14.4,3.92-21.78c1.05-14.78-0.33-29.63-2.81-44.21c-0.6-3.65-1.27-7.29-1.97-10.93c-0.35-1.86-0.62-3.59-1.4-5.02
			c-0.76-1.44-1.94-2.61-3.38-3.35c-1.44-0.75-3.1-1.1-4.82-1.19c-1.78-0.06-3.64-0.03-5.46-0.06c-3.65,0.07-7.31,0.34-10.96,0.75
			c-3.65,0.39-7.29,0.89-10.94,1.47c-3.65,0.57-7.29,1.21-10.98,1.74c-3.69,0.54-7.35,1.16-11.07,1.63
			c-3.73,0.44-7.48,0.75-11.26,0.88c-0.94,0.03-1.89,0.05-2.84,0.05c-0.95,0-1.9-0.07-2.85-0.1c-1.9-0.1-3.79-0.12-5.69-0.3
			c-3.79-0.4-7.58-1.04-11.26-2.21l-2.73-0.95l-1.36-0.48c-0.44-0.16-0.93-0.39-1.34-0.56c-0.8-0.35-1.45-0.58-2.12-0.66
			c-0.65-0.08-1.38-0.01-1.97,0.17c-1.19,0.36-2.16,1.36-2.86,2.76c-0.69,1.39-1.13,3.1-1.43,4.8c-0.59,3.45-0.57,7.12-0.9,10.95
			l-1,11.05c-0.67,7.37-1.09,14.76-1.41,22.15c-0.28,7.39-0.51,14.8-0.55,22.2c-0.05,7.41,0.09,14.81,0.24,22.23l-0.43-0.47l0,0
			c4.46,0.28,8.9,0.7,13.33,1.06c4.43,0.39,8.86,0.74,13.29,1.08c4.43,0.3,8.85,0.62,13.27,0.79
			C71.38,288.97,75.8,289.1,80.21,289.08z"/>
	</g>
	<g>
		<path class="st1" d="M32.44,281.36c18.88,2.74,38.77,4.79,58.22,3.74c10.67-0.58,21.32-2.12,31.99-1.66
			c2.68,0.12,5.68,0.25,7.69-1.52c1.26-1.12,1.87-2.78,2.38-4.39c8.19-25.66,4.93-53.45,0.28-79.98c-0.17-0.97-0.36-1.99-0.96-2.78
			c-1.06-1.41-3.05-1.67-4.81-1.76c-15.47-0.79-30.79,2.78-46.16,4.75c-8.06,1.03-16.24,1.59-24.35,0.87
			c-4.14-0.36-4.26,0.09-8.25-1.05c-1.77-0.51-7.34-1.31-9.23-1.31c-3.39,0-3.51-0.16-4.38,2.45c-1.34,4.01-0.72,6.25-0.73,10.49
			c-0.01,6.72,0.89,10.16-1.09,13.65c-4.49,7.95-0.97,18.24-1.1,27.37C31.81,260.62,30.76,271.41,32.44,281.36z"/>
		<path d="M32.44,281.36c15.29,2.04,30.69,3.56,46.09,3.51c3.85-0.01,7.7-0.03,11.54-0.24c3.84-0.19,7.68-0.52,11.53-0.84
			c3.85-0.32,7.7-0.63,11.57-0.8c1.93-0.09,3.87-0.12,5.81-0.12c1.93-0.01,3.9,0.12,5.78,0.14c1.87,0.01,3.8-0.24,5.15-1.37
			c1.36-1.12,1.96-2.98,2.5-4.81c1.1-3.67,2.08-7.39,2.76-11.17c1.42-7.55,2.04-15.24,2.07-22.93c-0.01-15.39-2.19-30.74-4.88-45.87
			c-0.19-0.91-0.51-1.71-1.15-2.23c-0.64-0.53-1.51-0.81-2.41-0.95c-0.9-0.15-1.86-0.16-2.82-0.2c-0.96-0.04-1.92-0.07-2.88-0.06
			c-3.84-0.02-7.68,0.2-11.51,0.57c-7.66,0.73-15.26,2.04-22.9,3.2c-7.63,1.16-15.33,2.17-23.09,2.26c-1.94,0.03-3.88,0-5.82-0.1
			c-1.95-0.08-3.87-0.32-5.77-0.37c-0.95-0.03-1.96-0.06-2.95-0.25c-0.98-0.17-1.93-0.44-2.86-0.69c-1.81-0.44-3.74-0.72-5.63-0.97
			c-0.95-0.12-1.91-0.23-2.84-0.28c-0.91-0.02-1.95-0.04-2.81,0.03c-0.45,0.06-0.71,0.15-0.9,0.43c-0.21,0.29-0.37,0.74-0.53,1.18
			c-0.31,0.9-0.58,1.79-0.74,2.71c-0.36,1.83-0.25,3.72-0.17,5.66c0.09,1.95,0.03,3.87,0.11,5.79c0.06,1.92,0.2,3.85,0.08,5.83
			c-0.06,0.99-0.22,2-0.54,2.96c-0.31,0.97-0.85,1.87-1.23,2.68c-0.8,1.69-1.29,3.52-1.53,5.39c-0.24,1.87-0.24,3.78-0.17,5.69
			c0.13,3.82,0.68,7.65,0.9,11.53c0.11,1.94,0.07,3.89,0,5.82l-0.25,5.79C31.63,265.97,31.26,273.72,32.44,281.36z M32.44,281.36
			c-1.35-7.62-1.14-15.41-0.97-23.11l0.12-5.78c0.03-1.93,0.03-3.84-0.12-5.75c-0.29-3.83-0.93-7.64-1.15-11.53
			c-0.22-3.86,0.07-7.93,1.79-11.56c0.44-0.93,0.91-1.7,1.18-2.57c0.29-0.87,0.43-1.78,0.49-2.72c0.11-1.87-0.03-3.8-0.09-5.73
			c-0.08-1.94-0.03-3.88-0.11-5.78c-0.08-1.91-0.2-3.91,0.18-5.88c0.18-0.98,0.46-1.94,0.78-2.86c0.17-0.46,0.31-0.94,0.67-1.44
			c0.17-0.25,0.45-0.48,0.75-0.61c0.3-0.14,0.58-0.17,0.85-0.22c1.06-0.08,1.95-0.05,2.97-0.03c0.99,0.05,1.95,0.16,2.92,0.28
			c1.93,0.26,3.83,0.52,5.77,0.99c0.94,0.26,1.84,0.51,2.77,0.67c0.91,0.17,1.84,0.2,2.81,0.23c1.96,0.06,3.87,0.3,5.78,0.38
			c1.92,0.1,3.84,0.12,5.75,0.1c7.69-0.09,15.33-1.09,22.95-2.25c7.62-1.15,15.24-2.47,22.95-3.21c3.85-0.37,7.73-0.59,11.61-0.58
			c0.97-0.01,1.94,0.02,2.91,0.06c0.97,0.03,1.94,0.05,2.94,0.21c0.99,0.16,2.04,0.46,2.9,1.17c0.88,0.71,1.29,1.82,1.49,2.79
			c2.71,15.23,4.89,30.58,4.9,46.09c-0.02,7.74-0.65,15.49-2.08,23.11c-0.68,3.82-1.67,7.57-2.79,11.29
			c-0.27,0.93-0.57,1.87-0.99,2.78c-0.42,0.91-1,1.82-1.82,2.49c-0.81,0.69-1.81,1.1-2.8,1.32c-1,0.22-2,0.28-2.99,0.28
			c-1.97-0.03-3.86-0.15-5.79-0.14c-1.92,0-3.84,0.03-5.76,0.12c-3.84,0.17-7.68,0.48-11.53,0.8c-7.68,0.68-15.42,1.19-23.16,1.09
			C63.05,285.61,47.69,283.73,32.44,281.36z"/>
	</g>
	<g>
		<path class="st2" d="M37.54,218.02c0.1,4.35-1.75,9.05,0.82,12.55c2.36,3.22,6.14,5.2,10.04,6.03c3.9,0.83,7.96,0.61,11.91,0.11
			c5.1-0.65,10.13-1.76,15.11-3.05c2.86-0.74,6.43-0.83,9.38-0.86c4.61-0.05,8.31,1.06,12.75,2.31c6.02,1.7,12.33,2.36,18.56,1.95
			c2.98-0.2,6.09-0.69,8.49-2.47c1.85-1.37,3.11-3.39,4.18-5.43c1.54-2.94,2.8-6.16,2.65-9.48c-0.2-4.53-3.02-8.76-2.6-13.28
			c0.17-1.85,0.88-3.7,0.48-5.51c-0.49-2.21-2.59-3.78-4.79-4.32c-2.2-0.54-4.51-0.26-6.76,0.03c-6.54,0.84-11.73,0.29-18.27,1.14
			c-11.31,1.46-24.04,4.3-35.47,3.97c-5.57-0.16-11.1-0.82-16.56-1.98c-3.1-0.66-9.47-3.26-10.37,1.43
			C36.17,206.07,37.43,212.79,37.54,218.02z"/>
		<path d="M37.76,218.02c0.04,2.66-0.6,5.24-0.59,7.84c0,1.29,0.2,2.59,0.78,3.74c0.58,1.14,1.49,2.11,2.43,2.99
			c1.94,1.73,4.33,2.93,6.83,3.63c2.51,0.71,5.15,0.93,7.76,0.87c5.23-0.17,10.42-1.12,15.53-2.25c1.28-0.29,2.55-0.59,3.82-0.91
			c1.27-0.34,2.55-0.63,3.85-0.78c2.6-0.3,5.23-0.38,7.85-0.35c2.63,0.07,5.22,0.57,7.75,1.23c2.54,0.65,5.04,1.45,7.61,1.94
			c5.13,1.04,10.41,1.34,15.61,0.89c2.58-0.24,5.23-0.77,7.34-2.29c2.12-1.51,3.45-3.85,4.61-6.16c1.15-2.33,2.08-4.81,2.24-7.39
			c0.18-2.59-0.65-5.1-1.44-7.59c-0.79-2.47-1.55-5.14-1.11-7.83c0.2-1.31,0.54-2.58,0.47-3.83c-0.05-1.24-0.65-2.4-1.58-3.23
			c-0.92-0.84-2.08-1.41-3.31-1.67c-1.24-0.27-2.53-0.28-3.81-0.18c-1.29,0.1-2.58,0.31-3.89,0.45c-1.31,0.14-2.63,0.24-3.94,0.31
			l-7.85,0.29c-2.61,0.11-5.18,0.43-7.77,0.82c-5.17,0.76-10.33,1.7-15.54,2.39c-5.2,0.71-10.45,1.25-15.73,1.23
			c-5.27-0.05-10.53-0.57-15.7-1.55c-1.29-0.25-2.58-0.49-3.87-0.85c-1.27-0.34-2.52-0.69-3.78-0.89c-1.25-0.19-2.59-0.24-3.62,0.33
			c-0.53,0.27-0.86,0.78-1.11,1.31c-0.19,0.56-0.31,1.2-0.38,1.84C36.65,207.53,37.66,212.76,37.76,218.02z M37.32,218.03
			c-0.15-5.21-1.23-10.42-0.7-15.73c0.07-0.66,0.18-1.32,0.4-2c0.29-0.64,0.71-1.3,1.37-1.64c0.63-0.35,1.34-0.54,2.02-0.56
			c0.69-0.05,1.36,0.01,2.03,0.1c1.33,0.19,2.61,0.54,3.87,0.87c1.25,0.33,2.54,0.56,3.82,0.79c5.14,0.9,10.35,1.42,15.56,1.43
			c5.21-0.01,10.41-0.57,15.59-1.31c5.18-0.75,10.34-1.61,15.55-2.33c2.59-0.37,5.23-0.67,7.86-0.77l7.86-0.23
			c1.3-0.06,2.6-0.14,3.9-0.27c1.29-0.13,2.59-0.33,3.92-0.42c1.32-0.09,2.68-0.07,4.01,0.23c1.33,0.3,2.6,0.92,3.6,1.87
			c1.02,0.92,1.7,2.28,1.75,3.67c0.06,1.39-0.31,2.68-0.51,3.95c-0.44,2.54,0.25,5.11,1.02,7.59c0.77,2.48,1.6,5.08,1.4,7.77
			c-0.19,2.67-1.16,5.19-2.34,7.54c-1.19,2.32-2.55,4.7-4.76,6.26c-2.2,1.55-4.91,2.07-7.51,2.29c-5.24,0.42-10.53,0.07-15.67-1.01
			c-2.58-0.52-5.07-1.33-7.6-2c-2.53-0.67-5.11-1.19-7.73-1.28c-2.62-0.04-5.25-0.01-7.85,0.32c-1.3,0.15-2.58,0.45-3.84,0.8
			c-1.27,0.32-2.54,0.64-3.82,0.93c-5.11,1.15-10.28,2.13-15.54,2.33c-2.62,0.06-5.27-0.12-7.82-0.81
			c-2.54-0.69-4.97-1.87-6.97-3.62c-0.98-0.89-1.91-1.85-2.53-3.05c-0.62-1.2-0.85-2.55-0.86-3.87
			C36.78,223.2,37.39,220.62,37.32,218.03z"/>
	</g>
	<path class="st3" d="M47.55,266.09c3.44-1.64,6.7-3.8,10.42-4.64c1.92-0.43,3.9-0.49,5.81-0.97c3.23-0.8,6.05-2.72,9.09-4.07
		c3.04-1.35,6.7-2.08,9.61-0.47c1.6,0.88,2.77,2.35,4.14,3.56c3.89,3.44,9.28,4.66,14.47,4.85c5.19,0.19,10.37-0.52,15.56-0.38
		c3.04,0.08,6.19,0.51,8.72,2.19c3.26,2.16,5,6.39,4.21,10.22c-0.17,0.85-0.46,1.68-0.96,2.38c-2.04,2.87-6.3,2.46-9.8,2.18
		c-4.24-0.34-8.5-0.03-12.75,0.22c-12.84,0.76-25.7,1.05-38.56,0.87c-6.48-0.09-12.96-0.31-19.43-0.64c-3.67-0.19-12.58,1.14-13-4.2
		C34.57,270.89,43.22,268.16,47.55,266.09z"/>
</g>
<g id="Layer_8">
	<path class="st6" d="M196.4,195.04c0.32,22.07,0.63,44.13,0.95,66.2c0.09,6.46,0.56,13.77,5.49,17.96
		c3.55,3.02,8.52,3.57,13.16,3.86c22.58,1.41,45.26-0.33,67.66-3.49c5.11-0.72,10.85-1.92,13.58-6.31c1.77-2.86,1.82-6.43,1.74-9.79
		c-0.53-24.59,1.08-48.11-5.62-71.78c-0.71-2.51-3.74-7.58-3.74-7.58c-2.42-2.22-10.97-2.88-14.25-3.07
		c-21.77-1.31-43.59-1.77-65.4-1.4c-3.52,0.06-9.58,0.11-11.97,3.29C195.87,185.76,196.35,191.71,196.4,195.04z"/>
</g>
</svg>
